<svg width="524" height="591" viewBox="0 0 524 591" fill="none" xmlns="http://www.w3.org/2000/svg">
<path d="M523 558.12C523 558.12 518.995 564.084 517.846 573.803C516.696 583.521 512.432 590 512.432 590" stroke="#DC5F00" stroke-opacity="0.77" stroke-width="2" stroke-miterlimit="10"/>
<path d="M523 531.615C523 531.615 509.28 540.009 505.646 561.139C502.16 581.68 488.069 590 488.069 590" stroke="#DC5F00" stroke-opacity="0.77" stroke-width="2" stroke-miterlimit="10"/>
<path d="M523 505.11C523 505.11 499.564 515.933 493.483 548.402C487.624 579.692 463.706 590 463.706 590" stroke="#DC5F00" stroke-opacity="0.77" stroke-width="2" stroke-miterlimit="10"/>
<path d="M523 478.532C523 478.532 489.886 491.858 481.283 535.665C473.088 577.778 439.381 590 439.381 590" stroke="#DC5F00" stroke-opacity="0.77" stroke-width="2" stroke-miterlimit="10"/>
<path d="M523 452.027C523 452.027 480.171 467.782 469.12 522.928C458.552 575.79 415.018 590 415.018 590" stroke="#DC5F00" stroke-opacity="0.77" stroke-width="2" stroke-miterlimit="10"/>
<path d="M523 425.522C523 425.522 470.455 443.707 456.92 510.264C444.016 573.802 390.655 590 390.655 590" stroke="#DC5F00" stroke-opacity="0.77" stroke-width="2" stroke-miterlimit="10"/>
<path d="M523 398.943C523 398.943 460.777 419.632 444.757 497.453C429.48 571.888 366.292 590 366.292 590" stroke="#DC5F00" stroke-opacity="0.77" stroke-width="2" stroke-miterlimit="10"/>
<path d="M523 372.438C523 372.438 451.061 395.556 432.558 484.79C414.944 569.9 341.93 590 341.93 590" stroke="#DC5F00" stroke-opacity="0.77" stroke-width="2" stroke-miterlimit="10"/>
<path d="M523 345.933C523 345.933 441.346 371.481 420.358 472.053C400.408 567.912 317.604 590 317.604 590" stroke="#DC5F00" stroke-opacity="0.77" stroke-width="2" stroke-miterlimit="10"/>
<path d="M523 319.355C523 319.355 431.668 347.332 408.195 459.316C385.835 565.998 293.241 590 293.241 590" stroke="#DC5F00" stroke-opacity="0.77" stroke-width="2" stroke-miterlimit="10"/>
<path d="M523 292.849C523 292.849 421.952 323.33 395.995 446.578C371.299 564.01 268.879 590 268.879 590" stroke="#DC5F00" stroke-opacity="0.77" stroke-width="2" stroke-miterlimit="10"/>
<path d="M523 266.344C523 266.344 412.237 299.255 383.832 433.915C356.762 562.022 244.516 590 244.516 590" stroke="#DC5F00" stroke-opacity="0.77" stroke-width="2" stroke-miterlimit="10"/>
<path d="M523 239.766C523 239.766 402.558 275.106 371.632 421.104C342.226 560.108 220.19 590 220.19 590" stroke="#DC5F00" stroke-opacity="0.77" stroke-width="2" stroke-miterlimit="10"/>
<path d="M523 213.261C523 213.261 392.843 251.03 359.469 408.367C327.69 558.12 195.828 590 195.828 590" stroke="#DC5F00" stroke-opacity="0.77" stroke-width="2" stroke-miterlimit="10"/>
<path d="M523 186.682C523 186.682 383.128 226.955 347.27 395.63C313.154 556.132 171.465 590 171.465 590" stroke="#DC5F00" stroke-opacity="0.77" stroke-width="2" stroke-miterlimit="10"/>
<path d="M523 160.177C523 160.177 373.449 202.88 335.107 382.893C298.618 554.218 147.102 590 147.102 590" stroke="#DC5F00" stroke-opacity="0.77" stroke-width="2" stroke-miterlimit="10"/>
<path d="M523 133.672C523 133.672 363.734 178.804 322.907 370.229C284.082 552.23 122.739 590 122.739 590" stroke="#DC5F00" stroke-opacity="0.77" stroke-width="2" stroke-miterlimit="10"/>
<path d="M523 107.094C523 107.094 354.018 154.729 310.707 357.419C269.546 550.242 98.4139 590 98.4139 590" stroke="#DC5F00" stroke-opacity="0.77" stroke-width="2" stroke-miterlimit="10"/>
<path d="M523 80.5886C523 80.5886 344.34 130.654 298.544 344.755C255.01 548.328 74.0511 590 74.0511 590" stroke="#DC5F00" stroke-opacity="0.77" stroke-width="2" stroke-miterlimit="10"/>
<path d="M523 54.0836C523 54.0836 334.625 106.578 286.344 332.018C240.474 546.34 49.6884 590 49.6884 590" stroke="#DC5F00" stroke-opacity="0.77" stroke-width="2" stroke-miterlimit="10"/>
<path d="M523 27.5051C523 27.5051 324.909 82.4293 274.181 319.281C225.938 544.353 25.3257 590 25.3257 590" stroke="#DC5F00" stroke-opacity="0.77" stroke-width="2" stroke-miterlimit="10"/>
<path d="M523 1.00001C523 1.00001 315.231 58.4275 261.981 306.544C211.402 542.438 0.999993 590 0.999993 590" stroke="#DC5F00" stroke-opacity="0.77" stroke-width="2" stroke-miterlimit="10"/>
</svg>
