<svg width="319" height="793" viewBox="0 0 319 793" fill="none" xmlns="http://www.w3.org/2000/svg">
<path d="M1 43.8104C1 43.8104 3.43205 35.802 4.13014 22.7512C4.82823 9.70049 7.41792 1 7.41792 1" stroke="#DC5F00" stroke-opacity="0.77" stroke-width="2" stroke-miterlimit="10"/>
<path d="M1 79.4033C1 79.4033 9.33203 68.1322 11.5389 39.7567C13.6557 12.1722 22.2129 1 22.2129 1" stroke="#DC5F00" stroke-opacity="0.77" stroke-width="2" stroke-miterlimit="10"/>
<path d="M1 114.996C1 114.996 15.232 100.462 18.9251 56.8611C22.4831 14.8417 37.0079 1 37.0079 1" stroke="#DC5F00" stroke-opacity="0.77" stroke-width="2" stroke-miterlimit="10"/>
<path d="M1 150.688C1 150.688 21.1095 132.793 26.3339 73.9655C31.3106 17.4123 51.7803 1 51.7803 1" stroke="#DC5F00" stroke-opacity="0.77" stroke-width="2" stroke-miterlimit="10"/>
<path d="M1 186.281C1 186.281 27.0094 165.123 33.7201 91.0698C40.138 20.0817 66.5753 1 66.5753 1" stroke="#DC5F00" stroke-opacity="0.77" stroke-width="2" stroke-miterlimit="10"/>
<path d="M1 221.874C1 221.874 32.9094 197.453 41.1289 108.075C48.9655 22.7512 81.3703 1 81.3703 1" stroke="#DC5F00" stroke-opacity="0.77" stroke-width="2" stroke-miterlimit="10"/>
<path d="M1 257.566C1 257.566 38.7869 229.783 48.5151 125.279C57.7929 25.3218 96.1653 1 96.1653 1" stroke="#DC5F00" stroke-opacity="0.77" stroke-width="2" stroke-miterlimit="10"/>
<path d="M1 293.158C1 293.158 44.6869 262.114 55.9238 142.284C66.6204 27.9913 110.96 1 110.96 1" stroke="#DC5F00" stroke-opacity="0.77" stroke-width="2" stroke-miterlimit="10"/>
<path d="M1 328.751C1 328.751 50.5868 294.444 63.3326 159.388C75.4478 30.6608 125.733 1 125.733 1" stroke="#DC5F00" stroke-opacity="0.77" stroke-width="2" stroke-miterlimit="10"/>
<path d="M1 364.443C1 364.443 56.4643 326.873 70.7188 176.493C84.2978 33.2314 140.528 1 140.528 1" stroke="#DC5F00" stroke-opacity="0.77" stroke-width="2" stroke-miterlimit="10"/>
<path d="M1 400.036C1 400.036 62.3643 359.104 78.1276 193.597C93.1252 35.9008 155.323 1 155.323 1" stroke="#DC5F00" stroke-opacity="0.77" stroke-width="2" stroke-miterlimit="10"/>
<path d="M1 435.629C1 435.629 68.2643 391.434 85.5138 210.603C101.953 38.5703 170.118 1 170.118 1" stroke="#DC5F00" stroke-opacity="0.77" stroke-width="2" stroke-miterlimit="10"/>
<path d="M1 471.321C1 471.321 74.1417 423.864 92.9226 227.806C110.78 41.1409 184.89 1 184.89 1" stroke="#DC5F00" stroke-opacity="0.77" stroke-width="2" stroke-miterlimit="10"/>
<path d="M1 506.914C1 506.914 80.0417 456.194 100.309 244.91C119.608 43.8104 199.685 1 199.685 1" stroke="#DC5F00" stroke-opacity="0.77" stroke-width="2" stroke-miterlimit="10"/>
<path d="M1 542.605C1 542.605 85.9417 488.524 107.718 262.015C128.435 46.4798 214.48 1 214.48 1" stroke="#DC5F00" stroke-opacity="0.77" stroke-width="2" stroke-miterlimit="10"/>
<path d="M1 578.198C1 578.198 91.8191 520.854 115.104 279.119C137.262 49.0504 229.275 1 229.275 1" stroke="#DC5F00" stroke-opacity="0.77" stroke-width="2" stroke-miterlimit="10"/>
<path d="M1 613.791C1 613.791 97.7191 553.184 122.513 296.125C146.09 51.7199 244.07 1 244.07 1" stroke="#DC5F00" stroke-opacity="0.77" stroke-width="2" stroke-miterlimit="10"/>
<path d="M1 649.483C1 649.483 103.619 585.515 129.921 313.328C154.917 54.3894 258.843 1 258.843 1" stroke="#DC5F00" stroke-opacity="0.77" stroke-width="2" stroke-miterlimit="10"/>
<path d="M1 685.076C1 685.076 109.497 617.845 137.308 330.333C163.745 56.96 273.638 1 273.638 1" stroke="#DC5F00" stroke-opacity="0.77" stroke-width="2" stroke-miterlimit="10"/>
<path d="M1 720.669C1 720.669 115.397 650.175 144.716 347.438C172.572 59.6294 288.433 1 288.433 1" stroke="#DC5F00" stroke-opacity="0.77" stroke-width="2" stroke-miterlimit="10"/>
<path d="M1 756.361C1 756.361 121.296 682.604 152.102 364.542C181.4 62.2989 303.227 1 303.227 1" stroke="#DC5F00" stroke-opacity="0.77" stroke-width="2" stroke-miterlimit="10"/>
<path d="M1 791.953C1 791.953 127.174 714.836 159.511 381.646C190.227 64.8695 318 1 318 1" stroke="#DC5F00" stroke-opacity="0.77" stroke-width="2" stroke-miterlimit="10"/>
</svg>
