<svg width="319" height="793" viewBox="0 0 319 793" fill="none" xmlns="http://www.w3.org/2000/svg">
<path d="M318 43.8104C318 43.8104 315.568 35.802 314.87 22.7512C314.172 9.70049 311.582 1 311.582 1" stroke="#DC5F00" stroke-opacity="0.77" stroke-width="2" stroke-miterlimit="10"/>
<path d="M318 79.4033C318 79.4033 309.668 68.1322 307.461 39.7567C305.344 12.1722 296.787 1 296.787 1" stroke="#DC5F00" stroke-opacity="0.77" stroke-width="2" stroke-miterlimit="10"/>
<path d="M318 114.996C318 114.996 303.768 100.462 300.075 56.8611C296.517 14.8417 281.992 1 281.992 1" stroke="#DC5F00" stroke-opacity="0.77" stroke-width="2" stroke-miterlimit="10"/>
<path d="M318 150.688C318 150.688 297.891 132.793 292.666 73.9655C287.689 17.4123 267.22 1 267.22 1" stroke="#DC5F00" stroke-opacity="0.77" stroke-width="2" stroke-miterlimit="10"/>
<path d="M318 186.281C318 186.281 291.991 165.123 285.28 91.0698C278.862 20.0817 252.425 1 252.425 1" stroke="#DC5F00" stroke-opacity="0.77" stroke-width="2" stroke-miterlimit="10"/>
<path d="M318 221.874C318 221.874 286.091 197.453 277.871 108.075C270.035 22.7512 237.63 1 237.63 1" stroke="#DC5F00" stroke-opacity="0.77" stroke-width="2" stroke-miterlimit="10"/>
<path d="M318 257.566C318 257.566 280.213 229.783 270.485 125.279C261.207 25.3218 222.835 1 222.835 1" stroke="#DC5F00" stroke-opacity="0.77" stroke-width="2" stroke-miterlimit="10"/>
<path d="M318 293.158C318 293.158 274.313 262.114 263.076 142.284C252.38 27.9913 208.04 1 208.04 1" stroke="#DC5F00" stroke-opacity="0.77" stroke-width="2" stroke-miterlimit="10"/>
<path d="M318 328.751C318 328.751 268.413 294.444 255.667 159.388C243.552 30.6608 193.267 1 193.267 1" stroke="#DC5F00" stroke-opacity="0.77" stroke-width="2" stroke-miterlimit="10"/>
<path d="M318 364.443C318 364.443 262.536 326.873 248.281 176.493C234.702 33.2314 178.472 1 178.472 1" stroke="#DC5F00" stroke-opacity="0.77" stroke-width="2" stroke-miterlimit="10"/>
<path d="M318 400.036C318 400.036 256.636 359.104 240.872 193.597C225.875 35.9008 163.677 1 163.677 1" stroke="#DC5F00" stroke-opacity="0.77" stroke-width="2" stroke-miterlimit="10"/>
<path d="M318 435.629C318 435.629 250.736 391.434 233.486 210.603C217.047 38.5703 148.882 1 148.882 1" stroke="#DC5F00" stroke-opacity="0.77" stroke-width="2" stroke-miterlimit="10"/>
<path d="M318 471.321C318 471.321 244.858 423.864 226.077 227.806C208.22 41.1409 134.11 1 134.11 1" stroke="#DC5F00" stroke-opacity="0.77" stroke-width="2" stroke-miterlimit="10"/>
<path d="M318 506.914C318 506.914 238.958 456.194 218.691 244.91C199.392 43.8104 119.315 1 119.315 1" stroke="#DC5F00" stroke-opacity="0.77" stroke-width="2" stroke-miterlimit="10"/>
<path d="M318 542.605C318 542.605 233.058 488.524 211.282 262.015C190.565 46.4798 104.52 1 104.52 1" stroke="#DC5F00" stroke-opacity="0.77" stroke-width="2" stroke-miterlimit="10"/>
<path d="M318 578.198C318 578.198 227.181 520.854 203.896 279.119C181.738 49.0504 89.7249 1 89.7249 1" stroke="#DC5F00" stroke-opacity="0.77" stroke-width="2" stroke-miterlimit="10"/>
<path d="M318 613.791C318 613.791 221.281 553.184 196.487 296.125C172.91 51.7199 74.9299 1 74.9299 1" stroke="#DC5F00" stroke-opacity="0.77" stroke-width="2" stroke-miterlimit="10"/>
<path d="M318 649.483C318 649.483 215.381 585.515 189.079 313.328C164.083 54.3894 60.1575 1 60.1575 1" stroke="#DC5F00" stroke-opacity="0.77" stroke-width="2" stroke-miterlimit="10"/>
<path d="M318 685.076C318 685.076 209.503 617.845 181.692 330.333C155.255 56.96 45.3625 1 45.3625 1" stroke="#DC5F00" stroke-opacity="0.77" stroke-width="2" stroke-miterlimit="10"/>
<path d="M318 720.669C318 720.669 203.603 650.175 174.284 347.438C146.428 59.6294 30.5675 1 30.5675 1" stroke="#DC5F00" stroke-opacity="0.77" stroke-width="2" stroke-miterlimit="10"/>
<path d="M318 756.361C318 756.361 197.704 682.604 166.898 364.542C137.6 62.2989 15.7725 1 15.7725 1" stroke="#DC5F00" stroke-opacity="0.77" stroke-width="2" stroke-miterlimit="10"/>
<path d="M318 791.953C318 791.953 191.826 714.836 159.489 381.646C128.773 64.8695 1 1 1 1" stroke="#DC5F00" stroke-opacity="0.77" stroke-width="2" stroke-miterlimit="10"/>
</svg>
